<?xml version="1.0" encoding="utf-8"?>
<!-- Generator: Adobe Illustrator 27.5.0, SVG Export Plug-In . SVG Version: 6.00 Build 0)  -->
<svg version="1.1" id="Layer_1" xmlns="http://www.w3.org/2000/svg" xmlns:xlink="http://www.w3.org/1999/xlink" viewBox="640 120 610 860" xml:space="preserve">
<g>
	<path fill="white" d="M1042.61,959.98c-25.66-0.4-51.32-0.94-76.98-1.13c-10.89-0.08-21.78,0.74-32.67,0.84c-16.12,0.15-32.25-0.44-48.35,0.18
		c-11.89,0.46-22.8-3.08-33.91-6.03c-22.94-6.09-45.83-12.38-68.73-18.63c-12.66-3.45-25.27-7.07-37.95-10.42
		c-27.95-7.39-55.93-14.65-83.89-21.98c-1.75-0.46-3.5-0.91-5.21-1.5c-7.82-2.7-9.32-5.87-6.32-13.94
		c3.24-8.71,6.64-17.36,10.02-26.02c11.21-28.7,22.68-57.29,33.51-86.13c3.14-8.37,8.49-13.91,15.61-18.78
		c28.26-19.3,56.29-38.93,84.45-58.38c8.94-6.18,17.96-12.25,27.06-18.2c3.44-2.25,5.56-5.05,6.53-9.08
		c4.45-18.42,9.07-36.8,13.62-55.2c2.6-10.53,4.98-21.13,7.9-31.57c0.8-2.86,0.16-4.68-1.28-6.84c-9.04-13.58-18.02-27.19-27-40.8
		c-11.36-17.22-22.67-34.49-34.08-51.68c-8.14-12.26-16.29-24.52-24.74-36.57c-2.99-4.27-4.62-8.89-5.14-13.84
		c-0.79-7.42-0.98-14.91-1.49-22.37c-0.7-10.17-1.47-20.34-2.21-30.5c-0.49-6.78-1.09-13.55-1.44-20.34
		c-0.56-10.86-0.83-21.74-1.46-32.6c-0.52-9.03-1.18-18.05-2.12-27.05c-0.61-5.82-0.31-11.08,3.26-16.17
		c7.42-10.57,14.41-21.45,21.56-32.21c7.39-11.13,14.73-22.29,22.16-33.39c7.82-11.69,16.51-22.88,23.35-35.11
		c5.78-10.33,15.31-13.26,25.02-16.87c21.67-8.06,43.32-16.19,64.94-24.39c18.2-6.9,36.27-14.14,54.57-20.77
		c3.58-1.3,8.12-1.4,11.88-0.56c15,3.35,29.86,7.28,44.78,11.01c26.5,6.63,53,13.25,79.48,19.93c13.35,3.37,26.66,6.92,40.02,10.28
		c3.71,0.93,7.54,1.39,11.26,2.26c4.19,0.98,7.16,3.39,9.14,7.39c10.33,20.96,20.71,41.91,31.34,62.72
		c2.61,5.1,2.65,9.59-1.28,13.54c-8.62,8.67-10.08,17.82-5.33,29.42c5.29,12.92,8.63,26.64,12.77,40.04
		c4.14,13.4,8.25,26.81,12.3,40.23c4.31,14.26,3.54,28.1-6.45,39.66c-7,8.09-6.06,14.9-1.6,23.71c7.36,14.54,13.29,29.8,19.94,44.71
		c3.32,7.45,6.95,14.76,10.34,22.18c2.43,5.32,3.16,10.67,1.13,16.48c-2.2,6.28-6.13,10.38-12.34,12.6
		c-4.91,1.75-9.7,3.84-14.59,5.65c-3.46,1.28-5.18,3.57-4.69,7.28c0.56,4.25,0.96,8.55,1.91,12.72c1.49,6.5,1.15,12.59-2.75,18.2
		c-2.45,3.52-3.33,7.42-2.88,11.63c0.94,8.82-2,16.45-6.88,23.6c-2.74,4.02-3.98,8.13-2.47,13.41c2.1,7.32,3.05,14.99,4.15,22.56
		c0.74,5.1-1.57,9.38-5.19,12.75c-9.63,8.96-19.21,17.98-29.21,26.52c-6.15,5.25-13.7,4.04-20.68,1.92
		c-8.23-2.51-16.21-5.83-24.32-8.77c-5.66-2.05-5.97-2.25-9.77,2.63c-3.6,4.63-6.62,9.73-9.65,14.76c-0.75,1.24-0.78,3.04-0.8,4.58
		c-0.09,5.45,0.07,10.91-0.07,16.36c-0.1,3.83,1.33,6.26,4.85,8.1c21.1,11.07,42.13,22.27,63.11,33.56
		c10.98,5.91,21.87,11.99,32.66,18.23c2.02,1.17,3.86,3.22,4.97,5.3c5.45,10.2,10.66,20.53,15.88,30.85
		c11.06,21.84,22.07,43.69,33.1,65.54c0.82,1.62,1.7,3.21,2.48,4.84c3.26,6.85,2.36,10.23-4.18,14.66
		c-26.44,17.92-52.94,35.75-79.35,53.7c-7.69,5.23-15.23,10.67-22.69,16.21c-4.35,3.24-8.9,4.9-14.45,4.87
		c-28.16-0.18-56.32-0.08-84.47-0.08C1042.61,959.8,1042.61,959.89,1042.61,959.98z M1134.83,574.01c0,0.12,0.01,0.23,0.01,0.35
		c-0.68,0-1.36-0.02-2.05,0c-2.85,0.1-5.6-0.02-6.48-3.49c-0.74-2.92,1.17-5.92,4.73-7.22c2.11-0.77,4.36-1.18,6.51-1.86
		c12.52-3.93,25.04-7.83,37.51-11.9c1.82-0.59,4.02-1.67,4.88-3.18c2.28-4.02-0.75-13.64-4.69-16.46
		c-4.8-3.43-9.62-6.83-14.35-10.35c-3.32-2.47-6.24-5.34-7.01-9.68c-0.51-2.88-0.89-5.79-1.4-8.67
		c-3.31-18.71-7.13-37.32-13.3-55.32c-4.19-12.22-1.99-9.33-14.08-12.74c-0.65-0.18-1.33-0.29-2-0.4
		c-18.9-3.14-38.14-4.04-56.81-8.68c-2.19-0.54-3.95-0.14-5.32,1.88c-1.15,1.68-2.62,3.12-3.89,4.72
		c-8.97,11.36-17.83,22.81-26.95,34.05c-2.19,2.7-2.51,4.87-0.96,7.92c3.49,6.87,6.79,13.83,9.95,20.86
		c9.31,20.68,18.43,41.44,27.79,62.1c7.39,16.32,15.04,32.53,22.56,48.8c4.95,10.71,9.74,21.49,14.86,32.12
		c1,2.07,2.86,4.4,4.88,5.18c10.35,3.98,20.9,7.43,31.32,11.23c2.47,0.9,4.34,0.62,6.19-1.14c6.59-6.24,13.25-12.4,19.81-18.67
		c1.92-1.84,2.41-3.97,1.58-6.8c-1.47-4.98-2.03-10.23-3.53-15.2c-1.79-5.92-1.62-11.41,1.18-16.99c2.54-5.06,4.62-10.34,6.92-15.52
		c2.43-5.46,1.63-6.59-4.61-6.44c-1.81,0.04-3.62,0.2-5.43,0.28C1153.38,573.21,1144.1,573.61,1134.83,574.01z M1045.45,837.25
		c0.08-0.61,0.15-1.22,0.23-1.83c-14.05-9.48-27.98-19.12-42.17-28.38c-14.59-9.54-29.45-18.66-44.14-28.06
		c-13.93-8.92-27.79-17.94-41.66-26.95c-4.21-2.73-7.67-3.57-12.83-0.43c-24.76,15.1-49.96,29.49-74.98,44.16
		c-3.65,2.14-7.21,4.45-11.17,6.9c4.77,10.61,9.31,20.68,13.83,30.76c1.75,3.92,4.89,4.68,8.89,4.65
		c22.02-0.19,44.03-0.25,66.05-0.2c41.54,0.08,83.08,0.3,124.62,0.37C1036.56,838.23,1041.01,837.59,1045.45,837.25z M1158,271.16
		c-12.44,0.62-23.95,1.16-35.45,1.79c-5.86,0.32-11.71,0.72-17.56,1.24c-12.59,1.13-25.18,2.36-37.77,3.55
		c-4.95,0.47-9.93,0.8-14.85,1.48c-1.38,0.19-2.63,1.37-4.08,2.17c0.62,1.67,1.03,2.95,1.56,4.17c4.48,10.38,8.85,20.81,13.5,31.1
		c8.57,18.97,17.29,37.88,26.01,56.78c2.64,5.72,3.07,5.74,9.38,4.94c3.81-0.49,7.66-0.67,11.5-0.86c3.17-0.16,6.36,0.01,9.52-0.22
		c9.67-0.72,19.33-1.7,29-2.34c9.25-0.61,18.52-0.8,27.77-1.46c3.73-0.26,7.4-1.28,11.77-2.08
		C1179.17,337.64,1168.73,304.8,1158,271.16z M1039.75,291.62c-0.56,0.11-1.13,0.22-1.69,0.32c-8.99,24.43-18.06,48.84-26.92,73.31
		c-2.48,6.84-6.23,12.26-12.31,16.54c-17.01,11.97-33.78,24.3-50.5,36.69c-1.96,1.45-5.05,2.41-5.3,6.53
		c25.18,12.05,50.44,24.14,75.89,36.32c2.13-2.36,3.86-4.13,5.41-6.04c4.26-5.28,8.46-10.6,12.65-15.93
		c13.42-17.09,26.63-34.34,40.37-51.18c3.55-4.35,3.24-7.87,1.22-12.32c-12-26.42-23.89-52.88-35.87-79.3
		C1041.91,294.82,1040.74,293.26,1039.75,291.62z M1004.2,782.33c0.57-0.31,1.14-0.63,1.7-0.94c-14.7-44.55-29.98-88.92-43.93-133.7
		c-11.93-38.29-26.82-75.43-40.99-112.87c-0.1-0.27-0.74-0.34-1.56-0.68c-0.57,4.47-1.52,8.84-1.6,13.21
		c-0.23,11.78-0.14,23.56-0.09,35.35c0.1,21.78,0.38,43.56,0.37,65.35c-0.01,23.15-0.07,46.3-0.56,69.45
		c-0.13,6.12,1.66,9.89,6.93,13.24C951.19,747.73,977.65,765.1,1004.2,782.33z M1021.86,482.18
		c-4.45,5.57-49.89,102.43-51.77,109.82c3.96,3.15,114.37,42.3,121.32,42.7C1068.14,583.69,1045.09,533.14,1021.86,482.18z
		 M1037.3,254.6c8.01-3.66,85.68-64.57,90.27-70.8c-10.07-4.38-140.33-36.85-146.27-36.46
		C982.65,153.51,1032.68,249.32,1037.3,254.6z M907.39,719.33c0-59.28,0-116.93,0-175.49c-1.86,1.43-3,2.14-3.94,3.05
		c-9.56,9.35-19.03,18.81-28.67,28.07c-3.25,3.12-5.03,6.7-6.03,11.04c-4.46,19.35-9.08,38.67-13.72,57.98
		c-2.43,10.1-4.95,20.17-7.57,30.22c-0.83,3.17-0.63,5.48,2.47,7.53c14.54,9.63,28.9,19.53,43.41,29.21
		C897.46,713.7,901.84,716.04,907.39,719.33z M862.53,184.03c1.96,1.37,2.9,2.29,4.02,2.77c8.53,3.69,17.08,7.34,25.66,10.91
		c29.03,12.11,58.08,24.19,87.12,36.27c11.5,4.78,22.99,9.58,34.54,14.24c2.11,0.85,4.47,1.05,7.71,1.77
		c-0.9-2.05-1.2-2.88-1.61-3.65c-8.89-17.07-17.78-34.14-26.68-51.21c-7.86-15.07-15.61-30.2-23.66-45.17
		c-3.16-5.88-3.47-5.7-9.55-3.43c-9.95,3.72-19.91,7.41-29.86,11.13c-19.74,7.37-39.48,14.72-59.19,22.17
		C868.39,180.85,865.93,182.35,862.53,184.03z M732.84,766.43c2.04,0.7,3.22,1.16,4.43,1.51c19.75,5.79,39.55,11.4,59.21,17.48
		c4.84,1.5,8.6,0.91,12.81-1.57c23.25-13.74,46.63-27.27,69.94-40.92c3.86-2.26,7.61-4.73,11.94-7.44
		c-1.82-1.63-3.03-2.92-4.44-3.93c-2.96-2.1-6.03-4.04-9.05-6.05c-13.39-8.89-26.82-17.73-40.14-26.73c-3.12-2.11-5.57-2-8.61,0.2
		c-8.63,6.23-17.43,12.22-26.18,18.26c-22.02,15.19-44.06,30.35-66.07,45.57C735.49,763.62,734.55,764.8,732.84,766.43z
		 M962.45,577.97c0.61,0.09,1.21,0.18,1.82,0.27c16.36-35.47,32.72-70.95,49.3-106.89c-2.85-1.7-4.86-3.11-7.05-4.17
		c-22.25-10.73-44.48-21.49-66.81-32.05c-8.18-3.87-9.8-2.43-9.26,6.77c0.89,15.15,1.79,30.31,2.29,45.47
		c0.35,10.87,0.93,21.53,5.32,31.79c6.76,15.82,12.92,31.89,19.4,47.83C958.97,570.72,960.78,574.32,962.45,577.97z M1063.75,693.66
		c-32.82-24.83-65.41-49.49-98.67-74.65c0.65,8.68,50.05,158.73,54.62,165.93C1035.04,754.62,1049.63,724.61,1063.75,693.66z
		 M1009.43,305.19c-11.57-4.74-22.43-9.22-33.32-13.63c-15.97-6.47-31.97-12.88-47.94-19.34c-15.34-6.2-30.72-12.28-45.97-18.69
		c-9.34-3.93-17.92-3.73-27.19,1.01c-18.57,9.5-37.63,18.04-56.42,27.12c-8.99,4.34-17.8,9.06-26.75,13.5
		c-3.56,1.76-4.85,4.45-4.37,8.28c0.69,5.56,1.25,11.13,1.93,17.24c2.31-0.73,4.32-1.1,6.08-1.97
		c21.19-10.38,42.3-20.91,63.52-31.22c7.11-3.45,14.35-6.74,21.77-9.44c7.05-2.57,14.15-3.42,21.67-0.11
		c12.44,5.48,25.27,10.04,37.9,15.1c22.73,9.11,45.43,18.32,68.15,27.47c4.15,1.67,8.32,3.27,13.39,5.25
		C1004.5,318.6,1006.87,312.16,1009.43,305.19z M771.56,357.67c13-6.28,24.81-11.97,36.59-17.7c16.92-8.23,33.83-16.47,50.71-24.76
		c9.78-4.8,19.57-4.94,29.49-0.48c4.13,1.86,8.3,3.64,12.51,5.34c23.09,9.34,46.21,18.63,69.3,27.99c4.41,1.79,8.69,3.91,13.11,5.69
		c2.71,1.09,6.36,2.6,8.03-0.48c2.96-5.45,6.01-11.13,5.83-17.84c-1.48-0.76-2.62-1.47-3.86-1.98
		c-16.98-6.92-33.97-13.83-50.96-20.72c-19.72-8-39.51-15.81-59.14-24.03c-8.85-3.71-17.05-2.92-25.43,1.23
		c-19.9,9.87-39.91,19.54-59.86,29.34c-7.93,3.89-15.76,8.01-23.75,11.78c-3.12,1.47-4.47,3.5-4.16,6.89
		C770.54,344.19,770.99,350.46,771.56,357.67z M878.55,936.43c77.93,0,155.42,0,233.95,0c-2.51-5.38-5.03-9.9-6.75-14.71
		c-2.16-6.04-5.87-7.83-12.3-7.81c-71.5,0.24-143,0.15-214.5,0.15c-1.59,0-3.2-0.15-4.76,0.07c-1.43,0.2-2.8,0.81-4.87,1.45
		C872.58,922.95,875.58,929.71,878.55,936.43z M854.7,881.61c1.77,5.03,2.84,8.73,4.37,12.23c1.51,3.47,3.48,6.74,5.12,9.86
		c20.59,1.47,226.34,0.75,232.48-1.01c-3.32-6.52-6.42-12.98-9.94-19.21c-0.69-1.23-2.93-2.03-4.54-2.2
		c-4.26-0.45-8.57-0.61-12.86-0.61c-28.14-0.01-56.28,0.05-84.41,0.1c-23.39,0.04-46.77,0.12-70.16,0.13
		c-17.48,0.01-34.96-0.09-52.44-0.07C860.17,880.83,858.03,881.25,854.7,881.61z M839.01,848.22c2.21,4.82,4.49,8.29,5.42,12.09
		c2.25,9.22,8.51,11.33,16.84,10.89c4.53-0.24,9.08-0.01,13.62-0.02c22.94-0.06,45.87-0.2,68.81-0.19
		c43.37,0.01,86.73,0.11,130.1,0.13c1.88,0,3.77-0.42,6.77-0.78c-3.43-7.03-6.14-13.2-9.48-19.01c-0.89-1.55-3.64-2.57-5.65-2.81
		c-4.04-0.48-8.16-0.3-12.25-0.3c-63.82-0.01-127.63-0.01-191.45-0.02C854.57,848.22,847.41,848.22,839.01,848.22z M774.07,393.26
		c3.24-1.2,5.4-1.79,7.38-2.75c11.43-5.55,22.8-11.23,34.24-16.77c17.14-8.31,34.34-16.49,51.44-24.86
		c6.73-3.3,13.38-3.8,20.32-0.82c5.21,2.24,10.49,4.3,15.74,6.42c17.64,7.13,35.39,14.01,52.87,21.53
		c5.83,2.51,10.46,3.47,15.15-1.78c1.75-1.96,4.49-3.01,6.71-4.58c1.94-1.37,3.77-2.89,5.85-4.5c-1.1-0.81-1.42-1.16-1.82-1.32
		c-32.77-13.28-65.63-26.33-98.25-39.99c-7.13-2.99-13.05-3-19.86,0.38c-26.58,13.18-53.33,25.99-80,39
		c-3.81,1.86-7.46,4.05-11.26,6.13C773.08,377.26,773.53,384.62,774.07,393.26z M860.34,412.55c0.44,6.97,0.71,13.72,1.34,20.44
		c0.84,8.98,2.56,17.92,2.73,26.9c0.11,5.97,2.25,10.42,5.82,14.66c6.55,7.79,13.14,15.53,19.63,23.37
		c8.05,9.72,8.29,10.08,20.42,9.47c14.2-0.71,12.99-1.41,12.24-13.92c-1.11-18.49-2.4-36.97-3.45-55.46
		c-0.16-2.85-1.1-4.95-2.67-7.35c-6.82-10.41-17.37-17.1-25.43-26.24c-1.94-2.2-4.32-2.09-6.85-1.1
		C876.35,406.36,868.58,409.35,860.34,412.55z M1176.69,780.36c-15-8.17-28.89-15.67-42.71-23.27
		c-13.98-7.69-27.89-15.51-43.24-22.87c0,3.52-0.01,5.76,0,8c0.16,29.5,0.32,59.01,0.5,88.51c0,0.18,0.2,0.4,0.35,0.54
		c0.16,0.15,0.4,0.22,1.57,0.82C1120.26,815.31,1147.85,798.22,1176.69,780.36z M954.65,387.6c-3.32-1.73-5.37-3-7.57-3.92
		c-11.71-4.86-23.44-9.66-35.2-14.42c-9.03-3.65-18.1-7.22-27.17-10.8c-4.88-1.93-9.75-1.87-14.5,0.37
		c-9.61,4.53-19.22,9.06-28.79,13.68c-20.63,9.95-41.21,20.01-61.88,29.89c-3.12,1.49-4.42,3.28-4.05,6.83
		c0.53,4.94,0.44,9.94,0.72,14.91c0.08,1.48,0.5,2.94,0.85,4.86c1.95-0.8,3.4-1.32,4.77-1.98c6.53-3.14,13.06-6.3,19.57-9.5
		c15.24-7.49,30.53-14.9,45.69-22.54c13.2-6.65,26.89-11.96,40.91-16.57c4.44-1.46,7.81-0.9,10.99,2.5
		c5.25,5.64,10.63,11.16,16.03,16.66c3.13,3.19,6.42,6.23,9.9,9.58C934.81,400.65,944.15,394.5,954.65,387.6z M1140.92,188.32
		c-28.81,22.8-57.25,44.72-86.09,68.26c11.95-0.62,22.33-1.12,32.7-1.71c6.33-0.36,12.66-0.8,18.98-1.31
		c15.31-1.22,30.59-2.87,45.92-3.59c7.23-0.34,12.14-2.72,14.87-9.94C1158.82,223.43,1150.22,206.55,1140.92,188.32z
		 M1208.85,496.21c-13.12-29.67-26.09-59-39.43-89.17c-6.42,7.1-11.92,13.99-18.28,19.96c-4.61,4.33-4.41,8.34-2.85,13.81
		c5.89,20.6,11.99,41.18,14.55,62.57c0.44,3.69,2.16,4.94,6.36,3.93c11.86-2.85,23.64-6.02,35.43-9.15
		C1206.09,497.77,1207.42,496.89,1208.85,496.21z M781.24,277.24c0.32,0.34,0.65,0.68,0.97,1.02
		c37.33-18.34,74.65-36.67,112.53-55.28c-1.29-1-2.03-1.86-2.96-2.26c-17.1-7.27-34.2-14.56-51.37-21.65
		c-4.86-2.01-5.52-1.49-8.74,3.24c-7.92,11.59-15.96,23.11-23.79,34.76C798.9,250.39,790.1,263.84,781.24,277.24z M675.15,883.95
		c29.94,8.11,58.87,16.24,87.96,23.75c29.01,7.49,57.67,16.34,88.4,23.63c-2.17-5.38-3.48-9.4-5.36-13.14
		c-2.32-4.62-5.9-7.65-11.31-8.85c-7.5-1.66-14.85-4.01-22.24-6.16c-2.82-0.82-5.51-2.1-8.35-2.85
		c-11.59-3.05-23.23-5.88-34.81-8.99c-13.09-3.51-26.13-7.23-39.18-10.87c-14.59-4.07-29.2-8.09-43.75-12.29
		c-4.41-1.27-5.83-1.22-7.56,2.93C677.33,875.01,676.51,879.24,675.15,883.95z M1020.95,275.57c-14.95-6.77-28.38-13.25-42.13-18.99
		c-21.09-8.81-42.41-17.09-63.61-25.67c-4.28-1.73-8.4-1.69-12.5,0.26c-5.92,2.82-11.81,5.68-17.64,8.68
		c-1.21,0.63-2.07,1.95-2.98,2.84c43.78,17.72,87.06,35.24,131.05,53.05C1015.92,288.61,1018.4,282.18,1020.95,275.57z
		 M835.6,898.66c-0.48-6.98-4.43-11.93-6.39-17.58c-1.15-3.31-3.58-4.89-6.97-5.74c-10.52-2.64-21.01-5.45-31.47-8.33
		c-20.94-5.78-41.85-11.65-62.76-17.49c-10.69-2.99-21.43-5.83-32.04-9.09c-3.18-0.98-5.05,0.11-6.09,2.52
		c-1.9,4.43-3.32,9.08-5.15,14.22C735.26,871.06,784.94,884.73,835.6,898.66z M1105.02,867.24c7.18-4.34,13.6-8.08,19.88-12.05
		c19.71-12.46,39.32-25.08,59.06-37.5c8.41-5.29,10.13-5.76,4.45-15.1c-2.41-3.96-3.33-8.85-7.75-12.34
		c-29.05,18.03-58.01,36.01-87.46,54.29C1097.86,852.38,1099.17,860.94,1105.02,867.24z M1197.63,821.05
		c-30.3,19.34-59.26,37.81-88.43,56.43c4.14,7.96,5.16,16.39,11.55,23c28.94-19.08,57.78-38.1,87.33-57.58
		C1204.6,835.62,1201.34,828.8,1197.63,821.05z M1069.03,823.9c0-38.4,0-75.3,0-112.19c-0.54-0.12-1.07-0.23-1.61-0.35
		c-13.22,28.51-27.91,56.33-40.95,85.7C1040.73,806.05,1054.28,814.6,1069.03,823.9z M1135.33,932.1c5.3-3.39,9.38-5.82,13.29-8.51
		c16.24-11.2,32.43-22.47,48.63-33.72c7.26-5.04,14.52-10.1,21.77-15.16c1.91-1.33,4.06-2.9,2.9-5.5
		c-2.51-5.67-4.63-11.61-8.97-16.98c-29.7,19.51-58.84,38.65-88.63,58.22C1128.08,917.84,1131.61,924.78,1135.33,932.1z
		 M821.56,863.11c-2.59-5.59-5.29-10.33-6.98-15.4c-1.67-5.02-4.98-6.98-9.73-8.19c-10.72-2.72-21.36-5.78-32-8.81
		c-10.66-3.03-21.27-6.25-31.94-9.26c-10.89-3.07-21.82-6.02-32.75-8.96c-4.85-1.3-5.99-0.78-8.02,3.6
		c-1.97,4.24-4.51,8.34-4.02,13.31C702.5,832.41,815.67,863.14,821.56,863.11z M705.46,801.13c34.24,9.53,67.04,18.67,101.36,28.22
		c-2.8-5.48-5.74-9.6-7.04-14.19c-1.72-6.05-5.9-8.05-11.17-9.5c-10.02-2.75-19.98-5.76-29.98-8.59
		c-13.72-3.88-27.44-7.78-41.23-11.43c-1.68-0.44-4.85,0.04-5.47,1.15C709.44,791.2,707.68,796.02,705.46,801.13z M838.22,412.86
		c-9.93,2.48-52.1,23.22-56.47,27.64c3.95,5.51,7.94,11.1,12.15,16.98c14.34-6.49,28.07-12.75,41.86-18.88
		c2.35-1.04,3.77-2.38,3.63-5.02C839.03,426.87,838.64,420.17,838.22,412.86z M859.7,556.26c5.96-12.59,11.65-24.62,17.5-36.99
		c-2-3.05-4.06-6.2-6.46-9.86c-11.13,4.89-21.76,9.56-33.19,14.59C845.16,535.1,852.15,545.27,859.7,556.26z M800.06,466.35
		c3.04,8.09,8.99,12.84,12.69,19.18c2.51-0.8,4.5-1.25,6.32-2.06c4.74-2.11,9.39-4.39,14.1-6.58c9.08-4.22,9.23-4.22,8.72-14.5
		c-0.22-4.35,0.38-9.01-2.85-13.5C826.24,454.62,813.56,460.3,800.06,466.35z M864.1,500.23c-6.02-6.62-11.4-12.53-16.81-18.47
		c-9.75,5-18.7,9.59-28.19,14.46c4.6,6.6,8.65,12.4,12.83,18.4C842.81,509.75,852.83,505.27,864.1,500.23z M1071.49,413.8
		c0.43,0.5,0.85,1,1.28,1.49c22.56-8.34,45.21-16.46,67.96-26.99c-1.67-0.84-2.22-1.38-2.74-1.34c-15.16,1-30.32,1.93-45.44,3.28
		c-2.08,0.19-4.36,2.19-5.87,3.94c-3.24,3.77-5.99,7.95-9.01,11.91C1075.67,408.7,1073.55,411.23,1071.49,413.8z"/>
</g>
</svg>
